<?xml version="1.0" encoding="UTF-8"?>
<svg id="Layer_1" data-name="Layer 1" xmlns="http://www.w3.org/2000/svg" version="1.1" viewBox="0 0 512 512">
  <defs>
    <style>
      .cls-1 {
        fill: #0058d8;
        stroke-width: 0px;
      }
    </style>
  </defs>
  <path class="cls-1" d="M71.1,209.9c0-29.8,0-59.6,0-89.3,0-20.9,10.6-32.9,31.2-36.8,55.7-10.6,106.1-32.8,149.6-69.6,7.5-6.3,11.7-6.3,19.4,0,44.2,35.9,94.5,58.8,150.3,69.7,19.9,3.9,30.6,16.1,30.5,36.4,0,59.2.8,118.4-.4,177.6-1.3,59.6-25.9,109.3-70,149.2-28.8,26-61.8,44.4-99.9,53.4-21.6,5.1-42.1,1-62.2-6.7-61.8-23.7-108.5-63.8-134.1-126-9.8-23.7-14.3-48.6-14.4-74.3-.2-27.9,0-55.7,0-83.6,0,0,0,0,0,0ZM261.7,35.1c-1.3,1-2.1,1.6-3,2.3-45.2,35.9-96.7,57.9-153.2,68.5-9.1,1.7-12.1,5.2-12.1,14.6,0,55.5,0,111,0,166.6,0,5.9.3,11.9.8,17.8,6.6,80.7,64.5,149.8,142.7,170.3,11.3,3,22.5,5.9,34.6,3.6,92.2-17.9,157.9-96.8,158.3-190.7.2-55.9,0-111.7,0-167.6,0-9.5-2.8-12.8-12.2-14.6-31.4-6.1-61.5-16.3-90.4-29.8-23.4-10.9-45.3-24.4-65.5-40.9Z"/>
  <path class="cls-1" d="M115.8,219.1c0-27.5,0-55,0-82.5,0-10.7,2.7-13.7,13-15.2,46-7,88.1-23.2,124.8-52.5,5.7-4.6,10.4-4.6,16.1,0,37.1,29.6,80,45.4,126.4,52.6,7.4,1.1,11.3,4.8,11.3,12.1,0,55.2,1,110.4-.8,165.5-1.8,53.9-27.4,96.5-70.3,128.6-19.8,14.8-41.6,25.8-66.4,29.6-14.9,2.3-29.1-1.3-42.4-7.2-62.5-27.6-101.1-74-110.5-142.7-1-7.4-1.1-15-1.1-22.6-.1-21.9,0-43.8,0-65.7ZM138.7,142.5c-.1,1.6-.3,2.8-.3,4,0,48-.4,96,.2,144,.8,64.3,41.4,119.2,102.4,139.5,10,3.3,19.9,6.2,31.2,3.2,67.7-18.1,112.5-75.8,112.8-146.7.2-46.2,0-92.5,0-138.7,0-1.7,0-3.4,0-5.3-45.6-7.3-86.5-24.4-123.3-51.6-36.9,27.3-77.9,44.4-123,51.6Z"/>
  <path class="cls-1" d="M238.7,295.9c16.4-18.2,32.2-35.7,48-53.3,14.6-16.3,29.3-32.5,43.9-48.8,5.4-6,11.6-6.7,17-2.2,5.1,4.3,5.1,11.2-.3,17.2-32.9,36.6-65.8,73.2-98.7,109.7-5.8,6.4-12,6.6-18.2.5-14.3-14.2-28.5-28.4-42.7-42.7-5.7-5.7-5.9-12.4-1-17.2,4.8-4.6,11.2-4.2,16.7,1.3,11.7,11.6,23.2,23.3,35.3,35.4Z"/>
</svg>