<?xml version="1.0" encoding="UTF-8"?>
<svg id="Layer_1" data-name="Layer 1" xmlns="http://www.w3.org/2000/svg" version="1.1" viewBox="0 0 512 512">
  <defs>
    <style>
      .cls-1 {
        fill: #0058d8;
        stroke-width: 0px;
      }
    </style>
  </defs>
  <path class="cls-1" d="M224.3,23.7c3,2.3,5.6,4.8,4,9.1-1.6,4.2-5.1,4.6-8.9,4.6-29.3,0-58.7,0-88,0-1.7,0-3.3,0-4.9,0-.1.4-.3.8-.2,1,12.7,17.4,15.3,37.4,15.2,58.1-.2,28.1-4.9,55.7-10.1,83.1-11.2,58.8-18.5,118-15.7,178,1,21.7,3.1,43.3,4.6,65.1h12.9c-1.2-17.1-2.6-34-3.4-50.9-.7-12.8-.7-25.7-.9-38.5,0-4.9,2.7-8,6.7-8.1,4,0,6.7,3,6.9,7.9.8,19.9.6,40,2.5,59.8,2.5,26.6,6.6,53,10.1,79.5,0,.6.4,1.1.7,1.9h267c-7.3-39.4-11.1-79.1-12.2-119-1-39.9.7-79.7,5.9-120-2.2,0-3.8,0-5.4,0-11,0-22.1.1-33.1,0-12.5-.2-21.4-8.9-21.3-20.5.1-11.5,9-20,21.2-20.2,8-.1,16,0,24,0,5.3,0,8.5,2.6,8.5,6.8,0,4.1-3.1,6.8-8.4,6.8-7.7,0-15.4,0-23.1,0-5.4,0-8.4,2.5-8.6,6.6-.1,4.4,2.9,6.9,8.7,6.9,11.8,0,23.6-.1,35.4,0,3.3,0,4.3-1.1,4.7-4.3,1.8-11.6,4-23.2,6.1-35.1-1.9,0-3.5,0-5.2,0-85.6,0-171.2,0-256.8-.1-4.3,0-5.6,1.4-6.4,5.3-7.7,37.8-12,76.1-13.8,114.6,0,.9,0,1.8-.1,2.7-.4,3.9-3.2,6.5-6.9,6.4-3.7,0-6.6-2.7-6.6-6.7,0-5.7.4-11.5.8-17.2,2.3-37.3,6.8-74.3,15.3-110.8,1.5-6.7,3.1-7.9,9.9-7.9,91.8,0,183.6,0,275.4,0,8.8,0,11,2.8,9,11.5-.3,1.5-.6,3-.9,4.8,3.4.2,6.7.3,10,.7,12.8,1.8,22,12.7,21.6,25.6-.5,12.8-10.6,23.1-23.5,23.8-4.5.2-9.1.2-13.6.1-2.5,0-3.4,1-3.7,3.4-5.5,44.1-7,88.3-4.9,132.6,1.7,36.1,5.5,72,12.9,107.4,1.3,6.3-1.6,9.4-8.6,9.4-48.4,0-96.8,0-145.2,0-43.4,0-86.8,0-130.2,0-8.2,0-9.6-.9-11.2-9.2-2.7-13.9-5-27.9-7.6-42.6-5.6,0-11.6,0-17.6,0-6,0-8.1-1.9-9-7.8-7.7-54.6-9.3-109.4-3.2-164.2,3.6-32.2,9.6-64.2,14.6-96.3.8-5,1.7-10,2.6-15.6-11,0-21.5-.6-31.8.1-15.8,1.1-26-6.6-31.5-20.2-12.1-30.1-10.8-60,4.6-88.7,5.7-10.6,14.9-17.2,26.6-20.2h134.3ZM123.4,62.7c-3-9.2-6.9-17.1-15.1-21.9-10.1-6-21.5-4.3-29.1,4.6-2.8,3.3-5.4,7-7,11-9.2,21.7-10.3,44-2.9,66.3,1.6,4.8,4.8,9.5,8.3,13.3,5,5.3,11.7,4.2,15-2.2,2.2-4.2,3.7-8.9,4.6-13.6,2.7-15.6,2.7-31.3.3-46.9-1.2-8,1-10.5,9.1-10.6,5.4,0,10.8,0,16.7,0ZM106,138.8h18.3c2.5-20.9,4.9-41.5,2.3-62.2h-14.7c1.4,21.1,1.8,41.8-5.9,62.2ZM431.8,221.6c5.5,0,10.2.3,14.8,0,5.5-.4,9.7-5.1,9.9-10.5.3-5.4-3.4-10.5-8.9-11.4-3.8-.6-7.7-.4-11.9-.6-1.3,7.7-2.6,14.9-3.9,22.6Z"/>
  <path class="cls-1" d="M383.1,23.7c15.6,3.6,26.5,13.1,31.8,28,3.4,9.4,5.9,19.4,7,29.3,2.4,22.2-.6,44.3-3.9,66.3-.8,5.3-3.9,7.8-8.1,7-4.1-.7-5.9-4-5.2-9.4,2.8-20.7,5.6-41.3,3.9-62.3-.9-10.8-3.1-21.2-8.4-30.8-5.5-9.8-13.7-14.7-25.2-14.7-40,.2-80.1,0-120.1,0-1.1,0-2.1,0-3.2,0-3.9.2-7.4-.5-8.9-4.6-1.5-4.2,1-6.8,4.2-9h136.1Z"/>
  <path class="cls-1" d="M273.8,146.2c-30.1,0-60.2,0-90.3,0-1.5,0-3.1.2-4.5-.2-3.5-.8-5.6-3-5.5-6.7,0-3.7,2.2-5.9,5.7-6.6,1.5-.3,3-.1,4.5-.1,60.2,0,120.4,0,180.5,0,7,0,10.3,2.1,10.4,6.7,0,4.7-3.3,6.9-10.6,6.9-30.1,0-60.2,0-90.3,0Z"/>
  <path class="cls-1" d="M276,250.6c30.1,0,60.2,0,90.3,0,1.5,0,3.1-.1,4.5.1,3.6.7,5.7,3.1,5.7,6.7,0,3.6-2.1,5.9-5.7,6.7-1.3.3-2.7.1-4.1.1-60.6,0-121.3,0-181.9,0-1.2,0-2.5.1-3.6-.1-3.7-.7-6-3.1-5.8-6.9,0-3.6,2.3-5.8,5.9-6.5,1.3-.2,2.7-.1,4.1-.1,30.2,0,60.5,0,90.7,0Z"/>
  <path class="cls-1" d="M273.3,409.3c-29.9,0-59.9,0-89.8,0-1.4,0-2.7,0-4.1,0-3.9-.4-6.6-3.3-6.4-6.9.3-3.8,2.4-6.1,6.3-6.6,1.3-.2,2.7,0,4.1,0,60.2,0,120.3,0,180.5,0,1.2,0,2.4,0,3.6,0,3.9.3,6.6,3,6.6,6.7,0,3.7-2.6,6.4-6.5,6.8-1.3.1-2.7,0-4.1,0-30.1,0-60.2,0-90.3,0Z"/>
  <path class="cls-1" d="M269.5,286.8c30.1,0,60.2,0,90.2,0,1.4,0,2.8-.1,4.1,0,3.8.7,6,2.9,5.9,6.8,0,3.7-2.2,5.9-5.7,6.5-1.5.3-3,.1-4.5.1-60.2,0-120.3,0-180.5,0-1.2,0-2.4,0-3.6,0-4-.3-6.6-3-6.6-6.7,0-3.7,2.5-6.5,6.4-6.8,1.3-.1,2.7,0,4.1,0,30.1,0,60.2,0,90.2,0Z"/>
  <path class="cls-1" d="M276.2,359.4c27.1,0,54.1,0,81.2,0,1.5,0,3.1-.1,4.5.2,3.3.7,5.4,3,5.5,6.4.1,3.6-1.9,6-5.4,6.9-1.4.3-3,.2-4.5.2-54.4,0-108.9,0-163.3,0-.9,0-1.8,0-2.7,0-4.2-.3-7-3-7.1-6.8,0-3.8,2.8-6.7,7-6.8,5.6-.2,11.2,0,16.8,0,22.7,0,45.4,0,68,0Z"/>
  <path class="cls-1" d="M285.5,96.2c27.1,0,54.1,0,81.2,0,1.5,0,3-.1,4.5.1,3.4.5,5.4,2.6,5.7,6,.3,3.4-1.3,5.9-4.6,6.9-1.7.5-3.6.5-5.4.5-54.3,0-108.5,0-162.8,0-1.9,0-4,0-5.8-.7-3.3-1.1-4.6-3.7-4.2-7.2.4-3.2,2.4-5.1,5.6-5.6,1.5-.2,3-.1,4.5-.1,27.1,0,54.1,0,81.2,0Z"/>
  <path class="cls-1" d="M243.3,323.1c22.7,0,45.4,0,68,0,1.4,0,2.8-.1,4.1.1,3.6.7,5.7,3.1,5.7,6.7,0,3.6-2.1,5.9-5.7,6.7-1,.2-2.1.1-3.2.1-46,0-91.9,0-137.9,0-1.2,0-2.5.1-3.6-.2-3.5-.9-5.5-3.2-5.4-6.8.1-3.5,2.1-5.6,5.4-6.4,1.4-.3,3-.2,4.5-.2,22.7,0,45.4,0,68,0Z"/>
  <path class="cls-1" d="M252.4,445.6c-19.2,0-38.4,0-57.6,0-1.4,0-2.8.1-4.1-.2-3.5-.8-5.6-3-5.5-6.7,0-3.7,2.2-5.8,5.7-6.6,1.3-.3,2.7-.1,4.1-.1,38.5,0,77.1,0,115.6,0,1.2,0,2.4,0,3.6,0,3.8.5,6,2.7,6.2,6.6.2,3.6-2.5,6.5-6.4,6.9-1.2.1-2.4,0-3.6,0-19.3,0-38.7,0-58,0Z"/>
  <path class="cls-1" d="M271.9,60c18.1,0,36.3,0,54.4,0,1.4,0,2.7-.1,4.1,0,3.8.6,6,3,5.9,6.8,0,3.6-2.2,5.9-5.8,6.5-1.2.2-2.4.1-3.6.1-36.6,0-73.2,0-109.7,0-.6,0-1.2,0-1.8,0-4.6-.2-7.5-2.7-7.5-6.7,0-4,2.8-6.7,7.3-6.9,2.7,0,5.4,0,8.2,0,16.2,0,32.3,0,48.5,0Z"/>
  <path class="cls-1" d="M265.7,227.9c-18,0-36,0-54,0-1.2,0-2.4,0-3.6,0-3.8-.4-6.6-3.4-6.3-7,.3-3.8,2.5-6.1,6.3-6.5,1.8-.2,3.6,0,5.4,0,35.2,0,70.5,0,105.7,0,1.4,0,2.7,0,4.1,0,3.9.3,6.5,3.1,6.5,6.7,0,3.7-2.6,6.5-6.5,6.7-3.5.2-7,0-10.4,0-15.7,0-31.5,0-47.2,0Z"/>
</svg>