<?xml version="1.0" encoding="UTF-8"?>
<svg id="Layer_1" data-name="Layer 1" xmlns="http://www.w3.org/2000/svg" version="1.1" viewBox="0 0 512 512">
  <defs>
    <style>
      .cls-1 {
        fill: #0058d8;
        stroke-width: 0px;
      }
    </style>
  </defs>
  <path class="cls-1" d="M71.7,251.1c0-55.1,0-110.3,0-165.4,0-28,17.6-45.7,45.4-45.7,59.7,0,119.4,0,179.1,0,5.4,0,9.2,1.7,12.7,5.8,32,37.5,64,75,96.2,112.3,3.3,3.8,4.8,7.7,4.8,12.8-.1,48.3,0,96.5-.2,144.8,0,3.5.8,5.6,4.1,7.4,37.4,21.5,55.1,65.7,42.9,106.7-12.4,41.7-51.3,69.3-94.8,66.6-24.8-1.5-45.8-11.7-62.7-29.9-2.5-2.7-4.9-3.8-8.5-3.8-57.8.1-115.5,0-173.3,0-28.2,0-45.7-17.6-45.7-45.8,0-55.3,0-110.6,0-165.9ZM392.5,313.7v-138.3c-19.2,0-38,0-56.8,0-26.1,0-44.2-18.1-44.2-44.2,0-22.7,0-45.4,0-68.2v-6h-5.8c-56.3,0-112.7,0-169,0-17.9,0-28.1,10.3-28.1,28.2,0,110.8,0,221.6,0,332.3,0,18.3,10.1,28.3,28.5,28.4,53.7,0,107.4,0,161.1,0h5.9c-35.7-70.1,28.5-152.8,108.5-132.3ZM291.5,403.4c-.1,41.9,33.8,76.2,75.5,76.4,42.2.2,76.5-33.8,76.6-75.8.1-41.9-33.8-76.2-75.5-76.4-42.2-.2-76.5,33.8-76.6,75.8ZM308.4,71.4c0,21.2,0,40.8,0,60.3,0,16.1,10.7,26.7,26.9,26.8,14.3,0,28.5,0,42.8,0,1.3,0,2.6-.2,4.5-.4-24.7-28.9-49-57.1-74.2-86.6Z"/>
  <path class="cls-1" d="M241.3,209.2c29.6,0,59.2,0,88.8,0,1.6,0,3.2-.2,4.7.1,4.5.9,7.3,3.7,7.3,8.3,0,4.7-2.8,7.5-7.3,8.3-1.5.3-3.2.1-4.7.1-59.5,0-119,0-178.6,0-1.8,0-3.6.2-5.3-.2-4.2-1-6.8-3.8-6.8-8.2,0-4.4,2.6-7.2,6.8-8.2,1.7-.4,3.5-.2,5.3-.2,29.9,0,59.9,0,89.8,0Z"/>
  <path class="cls-1" d="M240.7,276.8c-29.8,0-59.5,0-89.3,0-1.6,0-3.2.2-4.7-.1-4.5-.9-7.3-3.6-7.3-8.3,0-4.7,2.8-7.5,7.3-8.3,1.5-.3,3.2-.1,4.7-.1,59.5,0,119,0,178.6,0,1.6,0,3.2-.2,4.7.1,4.6.8,7.3,3.6,7.3,8.3,0,4.7-2.8,7.5-7.3,8.3-1.5.3-3.2.1-4.7.1-29.8,0-59.5,0-89.3,0Z"/>
  <path class="cls-1" d="M190.5,158.5c13.2,0,26.4,0,39.6,0,6.7,0,10.5,3.2,10.5,8.4,0,5.3-3.9,8.4-10.5,8.4-26.8,0-53.5,0-80.3,0-6.7,0-10.5-3.2-10.5-8.5,0-5.3,3.9-8.4,10.5-8.4,13.6,0,27.1,0,40.7,0Z"/>
  <path class="cls-1" d="M357.6,390.9c-2.6,2.9-5,5.9-7.9,8.6-3.9,3.7-9,3.5-12.3,0-3.2-3.4-3.2-8.1.4-11.9,7.7-8,15.5-15.8,23.5-23.5,3.9-3.7,8.4-3.8,12.3,0,8,7.7,15.8,15.6,23.5,23.5,3.7,3.9,3.5,9,0,12.3-3.4,3.2-8.1,3.2-11.9-.4-2.8-2.6-5.3-5.7-8.8-9.5-.3,2.8-.6,4-.6,5.3,0,13.4,0,26.8,0,40.1,0,6.6-3.2,10.5-8.4,10.5-5.3,0-8.4-3.9-8.4-10.5,0-14.6,0-29.1,0-43.7-.5-.3-1-.5-1.5-.8Z"/>
</svg>