<?xml version="1.0" encoding="UTF-8"?>
<svg id="Layer_1" data-name="Layer 1" xmlns="http://www.w3.org/2000/svg" version="1.1" viewBox="0 0 512 512">
  <defs>
    <style>
      .cls-1 {
        fill: #0058d8;
        stroke-width: 0px;
      }
    </style>
  </defs>
  <path class="cls-1" d="M304.9,181.3c8.8,5.6,17.4,11.1,26,16.6,7.7,4.9,8.7,9.1,4,16.8-25.9,42.4-54.9,82.6-88.2,119.6-3.4,3.8-7,6.6-12.3,4.5-6.4-2.4-7.9-9.6-3.1-15.3,8-9.5,16.3-18.7,24.2-28.3,21.7-26.8,41.6-54.9,60.2-84.8-6.8-4.3-13.4-8.5-20.6-13-2,3.1-3.7,5.8-5.4,8.6-31.9,51.5-65.9,101.6-105.3,147.8-13.3,15.6-27.9,30.3-42.9,44.4-6.3,5.9-15.1,9-22.7,13.5-1.5.9-3,2-3.9,3.3-3.6,5.5-7,11.1-10.6,16.6-3.6,5.5-9,7-13.5,3.9-4.6-3.1-5.5-8.4-2.2-13.9.5-.8,1-1.5,1.5-2.3,5.9-8.9,10.3-17.3,10.1-29.2-.3-18.9,8-36.5,15.3-53.8,26.7-63.4,61-122.7,98.2-180.3,20.7-32,41-64.3,66-93.2,9.2-10.7,20-20.1,30.8-29.3,6.4-5.5,14.5-8.4,23.3-7.7,17.3,1.2,28.5,16.4,26.4,35.4-1.6,14.3-6,27.9-12.4,40.6-12.3,24.2-25.5,47.9-38.3,71.8-1.4,2.5-2.9,5-4.5,7.8ZM117.3,391.3c.4.2.8.5,1.2.7,1.9-1.2,4.2-2.2,5.8-3.8,13.1-12.9,26.9-25.2,39-39,42.8-48.8,79-102.4,113.1-157.6.8-1.4,1.6-2.8,2.6-4.5-15.1-9.6-29.9-19-44.9-28.5-.8,1.1-1.4,1.8-1.8,2.6-22.2,37.5-45,74.6-66.3,112.6-17.7,31.6-33.1,64.5-44.2,99.2-1.9,6-3,12.2-4.5,18.3ZM244,142.9c15.3,9.7,29.9,18.9,44.9,28.4,3.4-5.8,6.8-11.1,9.9-16.6,14.1-24.7,28.7-49.1,37.8-76.2,2.6-7.8,4.1-16.3,4.2-24.5,0-8-6.5-11.6-13.9-8.2-5.4,2.4-10.6,5.8-14.9,9.8-27.3,25.2-46.8,56.6-68.1,87.3Z"/>
  <path class="cls-1" d="M304.1,493.1c-10.2,0-18.8-4.5-26.4-10.6-14.4-11.6-30.7-17.2-49.1-16.5-9.1.3-18.2,1.2-27.2,2.2-19.7,2.2-39.4,5-59.2.5-11-2.5-21.2-6.5-29.9-13.8-4-3.4-4.6-8.8-1.8-12.8,2.9-4.1,8.3-5.4,12.6-2.2,17.3,13,37.1,13.6,57.4,11.7,14-1.3,27.9-3,41.8-4.1,23.5-1.8,45.3,3.1,64.1,18.2.7.6,1.5,1.1,2.2,1.6,13.5,9.6,18.7,9.7,31.7-.4,15-11.8,31.4-20.4,50.3-23.8,6.4-1.1,13-1.6,19.5-1.9,6.3-.3,10.2,3.2,10.4,8.6.3,5.3-3.4,9.1-9.6,9.8-7.6.9-15.3,1.3-22.7,2.9-12,2.7-22.8,8.4-32.6,15.9-4,3.1-8,6.6-12.5,8.8-5.9,2.9-12.3,4.8-18.5,7.1-.2-.5-.3-.9-.5-1.4Z"/>
</svg>