<?xml version="1.0" encoding="UTF-8"?>
<svg id="Layer_1" data-name="Layer 1" xmlns="http://www.w3.org/2000/svg" version="1.1" viewBox="0 0 512 512">
  <defs>
    <style>
      .cls-1 {
        fill: #0058d8;
        stroke-width: 0px;
      }
    </style>
  </defs>
  <path class="cls-1" d="M174.5,262.3c-10.1-10.2-21.7-15.7-35.3-16.1-15.2-.4-30.4-.4-45.6,0-27,.7-49.1,23.1-49.9,50.1-.2,7.5.1,15-.2,22.5-.2,3.6,1.2,5.4,4.3,6.3,14.3,4.3,28.5,8.8,43,12.7,7.1,1.9,10.9,5.7,9.5,11.8-1.2,5.2-5.5,7.7-12.2,6.7-18.1-2.8-35.5-8.3-52-16.3-1.9-.9-4.2-1.4-5.6-2.8-2.1-2-5-4.6-5-7.1-.3-13.6-1.2-27.5.6-40.9,3.7-28.1,19.7-47.3,46.2-57.6,1.1-.4,2.1-.9,3.2-1.4-31.5-32.3-19.9-71.3,1-89.7,23.4-20.5,57.7-20.3,80.8,1.1,20.4,18.9,30.6,56.6.3,88.1,6,3.1,12.4,5.8,18.1,9.6,5.6,3.7,10.4,8.4,15.8,12.9,5.2-1.8,10.8-3.7,17-5.9-21-18.1-31.9-40.4-29.4-68.1,1.8-20.4,11.1-37.4,26.6-50.9,31.2-27.1,76.1-25.3,105,3.6,28.8,28.8,34.2,80.5-6.6,115.4,5.1,1.8,10.1,3.8,15.2,5.3,1.1.3,3-.3,3.8-1.2,8.8-9.6,19.5-16.2,32.4-20.4-14.8-14.7-22.1-32.1-19.3-52.7,2.1-15.7,9.7-28.6,22-38.6,24.5-19.9,58.6-17.7,80.6,4.6,20.1,20.4,26.8,57.2-1,85.4,8.8,5.8,18.6,10.8,26.7,17.9,15.2,13.3,22.3,30.9,22.5,51.2.1,10,0,20,0,30,0,4.6-2,7.6-6,9.6-17.8,8.9-36.4,15.5-56.2,18.4-3.4.5-8-.4-10.5-2.5-2-1.6-3.1-6.9-1.9-9.1,1.4-2.9,5.3-5.2,8.6-6.3,14-4.5,28.2-8.6,42.4-12.7,4.3-1.2,5.4-3.9,5.1-8.1-.6-9.4.2-18.9-1.2-28.2-3.5-23.1-21.8-40.9-45.1-42.5-18.1-1.3-36.5-.7-54.7.2-11.7.6-21.4,6.6-29.9,15.4,2.1,1.8,4,3.4,5.8,5,21.4,19.3,31.4,43.5,31.1,72.2-.1,11.5,0,23.1.2,34.6.1,5.4-1.7,9-6.7,11.5-74.7,37-149.3,36.8-224-.1-4.1-2-6.5-5-6.5-9.4,0-15.4-.2-30.8.6-46.1,1.4-26.8,13.3-48.5,33.9-65.6.7-.6,1.4-1.3,2.5-2.3ZM256.2,262.1c0,.3,0,.7,0,1-9.6,0-19.2-.1-28.8,0-33.4.5-63.6,24.8-69.1,57.6-2.6,15.6-1.5,31.7-1.8,47.7,0,1.4,2.1,3.5,3.7,4.3,64,29.5,128,29.5,192,0,1.8-.8,3.7-3.9,3.8-5.9.3-10.6-.1-21.1-.2-31.7-.2-33.4-22.7-62.8-55.4-69.6-14.3-3-29.4-2.4-44.1-3.4ZM197.2,185.7c0,31.9,26.9,58.8,58.8,58.8,31.9,0,58.9-26.8,59-58.6,0-32.2-26.9-59.2-59.1-59.1-31.8,0-58.7,27.1-58.7,58.9ZM115.7,227.3c23.3,0,42.2-18.4,42.3-41.2.1-23-18.6-42-41.5-42.1-23-.1-42,18.7-42,41.6,0,22.7,18.6,41.7,41.2,41.7ZM395.5,227.3c23.3,0,42-18.4,42.2-41.4.1-22.9-18.8-42-41.7-42-22.9,0-41.9,18.9-41.9,41.8,0,22.7,18.8,41.5,41.4,41.6Z"/>
</svg>