<?xml version="1.0" encoding="UTF-8"?>
<svg id="Layer_1" data-name="Layer 1" xmlns="http://www.w3.org/2000/svg" version="1.1" viewBox="0 0 512 512">
  <defs>
    <style>
      .cls-1 {
        fill: #0058d8;
        stroke-width: 0px;
      }
    </style>
  </defs>
  <path class="cls-1" d="M456.2,494.4c-7.1-5.3-7.8-7.8-5.1-16.6,7-22.6,14.1-45.3,21.1-67.9,7.7-25.2-5.9-47.7-31.7-52.5-25.5-4.7-50.9-9.3-76.4-13.9-7.3-1.3-10.2-4.8-10.2-12.6,0-37.4,0-74.8,0-112.3,0-12.2-10.5-20.1-21.7-16.7-6.8,2.1-11.5,8.2-11.8,15.7-.2,4,0,8.1,0,12.1,0,63.5,0,127,0,190.5,0,8.1-4.6,13-11.3,11.7-2.7-.5-5.3-2.5-7.3-4.4-12-11.7-23.7-23.7-35.7-35.5-6-5.9-13.9-7-21-3.4-6.8,3.5-11,10.8-9.3,18.6.9,4.1,3.4,8.4,6.3,11.5,18.8,19.2,37.9,38.1,56.9,57.1,5,5,6,9.6,2.8,14-1.4,1.9-3.7,3.1-5.6,4.6h-5.6c-2.8-2.4-5.7-4.7-8.3-7.3-18.3-18.2-36.6-36.3-54.7-54.7-18.9-19.2-14.2-49.5,9.2-61.3,13.9-7,30.6-5,42,5.6,7.1,6.6,13.6,14,20.3,21.1.5-.2,1-.5,1.6-.7v-5.2c0-57.6,0-115.2,0-172.8,0-18.6,12.5-33.9,29.9-36.8,23.5-3.9,43.2,12.9,43.3,37.3.2,33.2.1,66.5,0,99.7,0,4.3.8,6,5.5,6.8,22.8,3.8,45.6,7.8,68.2,12.5,24.7,5.2,41.8,23.7,46.1,48.4.1.7.5,1.4.8,2.1v14c-1.1,4.5-2.1,9-3.5,13.4-6.9,22.3-13.9,44.6-20.7,66.9-1.4,4.6-3.4,8.5-7.5,11h-6.5Z"/>
  <path class="cls-1" d="M37.3,202.5c.2,79.6,50.4,145.9,123.1,166.4.9.3,1.8.5,2.7.8,6.4,1.9,9.5,6.9,8,12.6-1.5,5.5-7,8.2-13.5,6.5-17.8-4.7-34.7-11.6-50.2-21.7-59.6-38.7-90.2-93.8-89.7-164.7.7-90.5,68.5-167.8,158.1-182.3,91.3-14.8,179.3,38,209.2,125.4.5,1.5,1.1,2.9,1.3,4.4.9,5.4-2,10-7.1,11.5-4.8,1.4-9.6-1-11.7-6-2.5-6.2-4.5-12.6-7.3-18.6-27.1-56.3-71.4-89.9-133.4-97.9C135.3,27.1,52,91.3,39,182.3c-1.1,8-1.4,16.1-1.7,20.1Z"/>
  <path class="cls-1" d="M186.2,243.2c1.3-1.8,2.2-3.5,3.5-4.8,28.9-29,57.9-58,86.9-87,6.4-6.4,12.3-7.2,16.9-2.5,4.5,4.6,3.5,10.4-2.6,16.6-31.9,31.9-63.9,63.9-95.8,95.8-7.2,7.2-11.8,7.2-18.9,0-15.7-15.7-31.4-31.4-47.1-47.1-2.9-2.9-5.6-6.2-4-10.2,1.2-3,3.8-6.1,6.6-7.6,3.6-1.9,7.5-.3,10.5,2.7,13.1,13.2,26.3,26.4,39.5,39.5,1.2,1.2,2.4,2.3,4.5,4.3Z"/>
</svg>