<?xml version="1.0" encoding="UTF-8"?>
<svg id="content" xmlns="http://www.w3.org/2000/svg" version="1.1" viewBox="0 0 463.3 136.9">
  <defs>
    <style>
      .cls-1 {
        fill: #0058d8;
      }

      .cls-1, .cls-2, .cls-3 {
        stroke-width: 0px;
      }

      .cls-1, .cls-3 {
        fill-rule: evenodd;
      }

      .cls-2 {
        fill: #353535;
      }

      .cls-3 {
        fill: #00d86c;
      }
    </style>
  </defs>
  <path class="cls-2" d="M170.2,59.6c-.7-1.4.3-2.4,1.9-2.4h7.9c.7,0,1.8.5,2,1.3l6.6,18.8h.1l11.2-20.2c.2-.4.8-.9,1.8-.9h.9c1,0,1.4.4,1.8.9l11.1,20.2h.1l6.6-18.8c.4-1.2,1.3-1.3,2.5-1.3h7.1c1.5,0,2.5,1.1,2,2.4l-13.7,39.5c-.2.6-.9,1.2-2,1.2h-.4c-.9,0-1.4-.4-1.8-.9l-13.8-24.5h-.1l-13.7,24.5c-.3.5-.9.9-1.8.9h-.5c-1,0-1.6-.5-1.9-1.2l-13.7-39.5Z"/>
  <path class="cls-2" d="M241.5,39c0-4,3.3-7.2,7.5-7.2s7.7,3.3,7.7,7.2-3.4,7.2-7.7,7.2-7.5-3.3-7.5-7.2Z"/>
  <path class="cls-2" d="M242.5,59.2c0-1.2,1-2,2.1-2h9.1c1.1,0,2.1.8,2.1,2v38c0,1-1,2-2.1,2h-9.1c-1.1,0-2.1-.9-2.1-2v-38Z"/>
  <path class="cls-2" d="M268,39c0-4,3.3-7.2,7.5-7.2s7.7,3.3,7.7,7.2-3.4,7.2-7.7,7.2-7.5-3.3-7.5-7.2Z"/>
  <path class="cls-2" d="M269,59.2c0-1.2,1-2,2.1-2h9.1c1.1,0,2.1.8,2.1,2v38c0,1-1,2-2.1,2h-9.1c-1.1,0-2.1-.9-2.1-2v-38Z"/>
  <path class="cls-2" d="M293,94.1l3-5.7c.4-1,1.5-1.3,2.5-.7,0,0,4.9,2.5,10,2.5s3.7-.8,3.7-2.6-1.5-3-7.4-5.3c-8.5-3.2-12.4-7.5-12.4-13.9s4.9-12.4,16.1-12.4,11.2,1.8,13.5,3.3c1,.6,1.5,1.8,1,2.8l-2.7,5.4c-.5.9-1.8,1.1-2.6.7,0,0-4.9-2.2-9.1-2.2s-3.7,1-3.7,2.4,2,2.5,6,4.1c8.5,3.2,14.8,6.6,14.8,14.8s-6.4,12.8-17.5,12.8-12.3-2.2-14.6-3.9c-.7-.5-1.1-1.4-.7-2.2Z"/>
  <path class="cls-2" d="M334.5,39c0-4,3.3-7.2,7.5-7.2s7.7,3.3,7.7,7.2-3.4,7.2-7.7,7.2-7.5-3.3-7.5-7.2Z"/>
  <path class="cls-2" d="M335.4,59.2c0-1.2,1-2,2.1-2h9.1c1.1,0,2.1.8,2.1,2v38c0,1-1,2-2.1,2h-9.1c-1.1,0-2.1-.9-2.1-2v-38Z"/>
  <path class="cls-2" d="M365.5,84.3s-3.3-3.6-3.3-9.9c0-9.8,8.2-18.3,19.1-18.3h20c1.2,0,2.1.8,2.1,2v3.5c0,.7-.4,1.6-1.2,1.8l-6.2,1.9s4.4,3.3,4.4,10.7-7.2,16.5-18.8,16.5-7-.8-8.8-.8-4.1,1.5-4.1,4,2,3.6,4.4,3.6h14.1c10,0,18.1,5.5,18.1,14.7s-8.1,17.9-24.1,17.9-22.4-7.7-22.4-14.4,5.5-9.3,6.6-10v-.3c-1.9-.5-8.2-3.4-8.2-11s8.2-11.8,8.2-11.8ZM381.2,121.2c6.2,0,10.2-2.6,10.2-6.6s-1.5-5.1-8-5.1-4.8.1-7.1.4c-1.3.4-4.7,1.9-4.7,5.1s3.7,6.2,9.7,6.2ZM381.7,82.5c4.5,0,7.6-3.2,7.6-7.6s-3.1-7.6-7.6-7.6-7.7,3.2-7.7,7.6,3.3,7.6,7.7,7.6Z"/>
  <path class="cls-2" d="M412.7,59.2c0-1.2,1-2,2.1-2h4.2c1,0,1.5.5,1.9,1.3l1.5,3.9c1.6-1.7,7-6.2,15.5-6.2,14,0,19.6,10,19.6,20.9v20.2c0,1-1,2-2.1,2h-9c-1.2,0-2.1-.9-2.1-2v-20.8c0-5.5-3-8.9-8.2-8.9s-9.2,3.8-10.3,6.6v23.1c0,1.5-.7,2-2.7,2h-8.1c-1.1,0-2.1-.9-2.1-2v-38Z"/>
  <g>
    <polygon class="cls-1" points="156.7 26.9 169.5 5 143.9 5 96.1 86.8 70.6 43 45 43 96.1 130.6 156.7 26.9 156.7 26.9"/>
    <polygon class="cls-3" points="83.4 43 96.1 64.9 121.7 21.1 96.1 21.1 83.4 43 83.4 43"/>
    <polygon class="cls-3" points="57.8 86.8 32.2 43 6.6 43 57.8 130.6 70.6 108.7 57.8 86.8 57.8 86.8"/>
  </g>
</svg>